<svg xmlns="http://www.w3.org/2000/svg" viewBox="0 0 157.83 33.5"><defs><style>.cls-1{fill:#1d1d1b;}</style></defs><title>lolig_textonly_logo</title><g id="Calque_2" data-name="Calque 2"><g id="Calque_1-2" data-name="Calque 1"><path class="cls-1" d="M22.45,23.38V32.9H0V.55H10.4V23.38Z"/><path class="cls-1" d="M55.12,16.73c0,9.56-7.34,16.77-17,16.77S21,26.29,21,16.73,28.37,0,38.07,0,55.12,7.21,55.12,16.73Zm-10.39,0a6.43,6.43,0,0,0-6.66-6.66,6.43,6.43,0,0,0-6.65,6.66,6.41,6.41,0,0,0,6.65,6.65A6.41,6.41,0,0,0,44.73,16.73Z"/><path class="cls-1" d="M78.45,23.38V32.9H56V.55H66.4V23.38Z"/><path class="cls-1" d="M89.5.55V32.9H79.1V.55Z"/><path class="cls-1" d="M123.32,14.18V32.9H118.7l-.93-3.42a13.87,13.87,0,0,1-10.35,4c-9.7,0-17-7.21-17-16.77S97.72,0,107.42,0a16.89,16.89,0,0,1,14,6.88l-8.64,5.69a6.55,6.55,0,0,0-5.32-2.5,6.44,6.44,0,0,0-6.7,6.66c0,4.15,2.82,7.06,6.7,7.06,2.78,0,4.81-.92,5.87-2.91h-6.7v-6.7Z"/><path class="cls-1" d="M157.83,16.73c0,9.56-7.34,16.77-17.05,16.77s-17-7.21-17-16.77S131.08,0,140.78,0,157.83,7.21,157.83,16.73Zm-10.39,0a6.66,6.66,0,1,0-13.31,0,6.66,6.66,0,0,0,13.31,0Z"/></g></g></svg>