<svg xmlns="http://www.w3.org/2000/svg" viewBox="0 0 13.3 15.22"><defs><style>.cls-1{fill:#4d348b;}</style></defs><title>loligo_favicon</title><g id="Calque_2" data-name="Calque 2"><g id="Calque_1-2" data-name="Calque 1"><path class="cls-1" d="M4.07,13.6a.38.38,0,0,0,.38-.38V12.06a.38.38,0,0,0-.39-.39h0a.38.38,0,0,0-.38.39v.77H.39a.39.39,0,0,0,0,.78Z"/><path class="cls-1" d="M5.8,11.65h0a.39.39,0,0,0-.39.39v2.4H2.13a.39.39,0,0,0-.39.38.38.38,0,0,0,.39.39l3.67,0h0a.4.4,0,0,0,.27-.12.36.36,0,0,0,.12-.27V12A.39.39,0,0,0,5.8,11.65Z"/><path class="cls-1" d="M12.91,12.82H9.63v-.77a.38.38,0,0,0-.39-.39h0a.38.38,0,0,0-.38.39v1.16a.38.38,0,0,0,.38.38h3.67a.39.39,0,1,0,0-.78Z"/><path class="cls-1" d="M11.18,14.43H7.89V12a.39.39,0,0,0-.39-.39h0a.39.39,0,0,0-.39.39v2.79a.39.39,0,0,0,.11.27.42.42,0,0,0,.28.12h0l3.67,0a.39.39,0,0,0,.39-.39A.4.4,0,0,0,11.18,14.43Z"/><path class="cls-1" d="M.32,5.6a1.76,1.76,0,0,1,1.15.57,2.32,2.32,0,0,1-.1,1.66,2.94,2.94,0,0,0,0,2.43,3.14,3.14,0,0,0,2.35,1.07h.05A.39.39,0,0,0,4.19,11a.38.38,0,0,0-.33-.43,2.55,2.55,0,0,1-1.81-.74A2.36,2.36,0,0,1,2.12,8a2.8,2.8,0,0,0,0-2.27A2.35,2.35,0,0,0,.46,4.84a.39.39,0,0,0-.14.76Z"/><path class="cls-1" d="M11.23,9.83a2.55,2.55,0,0,1-1.81.74.39.39,0,0,0,0,.77h0a3.18,3.18,0,0,0,2.36-1.07,2.9,2.9,0,0,0,0-2.43c-.17-.65-.34-1.27-.09-1.66A1.71,1.71,0,0,1,13,5.6a.39.39,0,1,0-.14-.76,2.38,2.38,0,0,0-1.67.92,2.84,2.84,0,0,0,0,2.27C11.34,8.73,11.52,9.39,11.23,9.83Z"/><path class="cls-1" d="M8.48,10.2a1.28,1.28,0,0,0,.53.12H9a1.2,1.2,0,0,0,1.2-1.19v0A1.19,1.19,0,0,0,9,7.91a1.21,1.21,0,0,0-1.2,1.2h0v0a1.37,1.37,0,0,0,.12.51l-.05,0c-.46.61-.9.91-1.32.88-.65,0-1.12-.83-1.13-.84a.22.22,0,0,0-.07-.09,1.37,1.37,0,0,0,.12-.51v0h0a1.21,1.21,0,0,0-1.2-1.2A1.19,1.19,0,0,0,3.07,9.09v0a1.2,1.2,0,0,0,1.2,1.19h0a1.24,1.24,0,0,0,.53-.12,3.55,3.55,0,0,0,.4.5,2,2,0,0,0,1.3.65h.1A2.42,2.42,0,0,0,8.48,10.2Zm-4.2-.65a.45.45,0,0,1-.44-.43.42.42,0,0,1,.42-.43h0a.43.43,0,0,1,.44.42A.44.44,0,0,1,4.28,9.55ZM9,8.69a.43.43,0,0,1,.44.43A.45.45,0,0,1,9,9.55a.42.42,0,0,1-.43-.44A.42.42,0,0,1,9,8.69Z"/><path class="cls-1" d="M3.31,4.3l.12,3.09a.38.38,0,0,0,.38.37h0a.39.39,0,0,0,.37-.4L4.08,4.09V3.92l-.13-.11a2.92,2.92,0,0,1-.53-.53L6.63.85,9.87,3.29a3.17,3.17,0,0,1-.52.53l-.14.11L9.09,7.37a.38.38,0,0,0,.37.4h0a.39.39,0,0,0,.39-.37L10,4.31a1.93,1.93,0,0,0,.73-1,.53.53,0,0,0-.15-.42l0,0L6.91.09A.42.42,0,0,0,6.7,0a.37.37,0,0,0-.33.07L2.75,2.81l0,0a.53.53,0,0,0-.15.42A2,2,0,0,0,3.31,4.3Z"/></g></g></svg>