<svg xmlns="http://www.w3.org/2000/svg" viewBox="0 0 28.55 32.66"><defs><style>.cls-1{fill:#4d348b;}</style></defs><title>loligo_branding_logo</title><g id="Calque_2" data-name="Calque 2"><g id="Calque_1-2" data-name="Calque 1"><path class="cls-1" d="M8.73,29.2A.83.83,0,0,0,9.31,29a.83.83,0,0,0,.25-.59V25.88a.83.83,0,0,0-.83-.83h0a.82.82,0,0,0-.82.83v1.66h-7a.83.83,0,0,0,0,1.66Z"/><path class="cls-1" d="M12.45,25h0a.83.83,0,0,0-.83.83V31l-7,0h0a.83.83,0,0,0,0,1.66l7.88,0h0a.82.82,0,0,0,.83-.83v-6A.83.83,0,0,0,12.45,25Z"/><path class="cls-1" d="M27.72,27.53h-7V25.88a.83.83,0,0,0-.83-.83h0a.83.83,0,0,0-.83.83v2.49a.82.82,0,0,0,.83.83h7.88a.83.83,0,0,0,0-1.66Z"/><path class="cls-1" d="M24,31h0l-7,0V25.84a.83.83,0,0,0-.83-.83h0a.83.83,0,0,0-.83.83v6a.82.82,0,0,0,.24.59.87.87,0,0,0,.59.24h0l7.88,0A.83.83,0,1,0,24,31Z"/><path class="cls-1" d="M.68,12a3.63,3.63,0,0,1,2.48,1.23c.52.83.16,2.15-.21,3.56C2.49,18.53,2,20.46,3,22c.82,1.23,2.47,2,5.05,2.3h.1A.83.83,0,0,0,9,23.61a.82.82,0,0,0-.72-.92c-2-.26-3.34-.79-3.88-1.59s-.25-2.35.15-3.85c.45-1.69.92-3.44,0-4.88A5.05,5.05,0,0,0,1,10.4a.83.83,0,0,0-1,.66A.84.84,0,0,0,.68,12Z"/><path class="cls-1" d="M24.1,21.1c-.54.8-1.84,1.33-3.88,1.59a.82.82,0,0,0-.72.92.83.83,0,0,0,.82.73h.1c2.58-.32,4.23-1.07,5-2.3,1.06-1.57.54-3.5.08-5.21-.37-1.41-.73-2.73-.21-3.56A3.6,3.6,0,0,1,27.82,12a.84.84,0,0,0,.67-1,.83.83,0,0,0-1-.66,5.05,5.05,0,0,0-3.58,2c-.91,1.44-.44,3.19,0,4.88C24.35,18.75,24.73,20.16,24.1,21.1Z"/><path class="cls-1" d="M18.2,21.89a2.64,2.64,0,0,0,1.15.26h0A2.59,2.59,0,0,0,22,19.59v-.07A2.54,2.54,0,0,0,19.36,17a2.59,2.59,0,0,0-2.58,2.56v.07A3,3,0,0,0,17,20.71a.47.47,0,0,0-.1.1c-1,1.32-1.94,2-2.84,1.9-1.39-.08-2.4-1.78-2.42-1.81a.7.7,0,0,0-.15-.19,3.17,3.17,0,0,0,.26-1.09v-.07A2.59,2.59,0,0,0,9.21,17a2.54,2.54,0,0,0-2.62,2.53v.07a2.58,2.58,0,0,0,2.58,2.56h.05a2.65,2.65,0,0,0,1.13-.25A6.71,6.71,0,0,0,11.21,23,4.35,4.35,0,0,0,14,24.37h.22C15.6,24.37,16.94,23.54,18.2,21.89Zm-9-1.4a.92.92,0,1,1,0-1.84h0a.92.92,0,1,1,0,1.84Zm10.19-1.84a.92.92,0,1,1-.95.9A.91.91,0,0,1,19.39,18.65Z"/><path class="cls-1" d="M7.11,9.22l.24,6.63a.84.84,0,0,0,.83.8h0A.82.82,0,0,0,9,15.8l-.25-7V8.41l-.3-.24A7,7,0,0,1,7.32,7.05l6.92-5.23,7,5.25A7,7,0,0,1,20.07,8.2l-.3.23-.27,7.39a.83.83,0,0,0,.8.86h0a.83.83,0,0,0,.83-.8l.24-6.63A4.15,4.15,0,0,0,23,7a1.21,1.21,0,0,0-.31-.9l-.05-.05L14.84.19A.8.8,0,0,0,14.38,0a.81.81,0,0,0-.7.14L5.91,6l0,0a1.14,1.14,0,0,0-.31.9A4.05,4.05,0,0,0,7.11,9.22Z"/></g></g></svg>