<svg xmlns="http://www.w3.org/2000/svg" viewBox="0 0 16 16"><defs><style>.cls-1{fill:#1d1d1b;}.cls-2{fill:#fff;}</style></defs><title>loligo_favicon_2</title><g id="Calque_2" data-name="Calque 2"><g id="Calque_1-2" data-name="Calque 1"><rect class="cls-1" width="16" height="16"/><path class="cls-2" d="M5.44,14.19a.39.39,0,0,0,.27-.11.41.41,0,0,0,.11-.28V12.64a.38.38,0,0,0-.39-.38h0a.38.38,0,0,0-.38.38v.78H1.76a.39.39,0,0,0,0,.77H5.44Z"/><path class="cls-2" d="M7.17,12.24h0a.39.39,0,0,0-.39.39V15H3.5a.39.39,0,1,0,0,.77H7.17a.39.39,0,0,0,.27-.11.36.36,0,0,0,.12-.27V12.63A.39.39,0,0,0,7.17,12.24Z"/><path class="cls-2" d="M14.28,13.41H11v-.78a.38.38,0,0,0-.39-.38h0a.38.38,0,0,0-.38.38V13.8a.41.41,0,0,0,.11.28.39.39,0,0,0,.27.11h3.67a.39.39,0,1,0,0-.77Z"/><path class="cls-2" d="M12.55,15H9.26v-2.4a.38.38,0,0,0-.38-.39h0a.39.39,0,0,0-.39.39v2.79a.39.39,0,0,0,.11.27.41.41,0,0,0,.28.11h3.67a.39.39,0,1,0,0-.77Z"/><path class="cls-2" d="M1.69,6.19a1.68,1.68,0,0,1,1.15.57,2.32,2.32,0,0,1-.1,1.66,2.94,2.94,0,0,0,0,2.43,3.14,3.14,0,0,0,2.35,1.07h0a.38.38,0,0,0,.38-.33.37.37,0,0,0-.33-.43,2.55,2.55,0,0,1-1.81-.74,2.36,2.36,0,0,1,.07-1.8,2.8,2.8,0,0,0,0-2.27,2.35,2.35,0,0,0-1.66-.92.39.39,0,1,0-.14.76Z"/><path class="cls-2" d="M12.6,10.42a2.55,2.55,0,0,1-1.81.74.38.38,0,0,0,0,.76h.05a3.18,3.18,0,0,0,2.36-1.07,2.9,2.9,0,0,0,0-2.43c-.17-.65-.34-1.27-.09-1.66a1.63,1.63,0,0,1,1.15-.57.39.39,0,0,0-.14-.76,2.38,2.38,0,0,0-1.67.92,2.84,2.84,0,0,0,0,2.27C12.71,9.32,12.89,10,12.6,10.42Z"/><path class="cls-2" d="M9.85,10.79a1.24,1.24,0,0,0,.53.12h0a1.21,1.21,0,0,0,1.2-1.2h0v0A1.18,1.18,0,0,0,10.39,8.5,1.21,1.21,0,0,0,9.18,9.69v0a1.27,1.27,0,0,0,.12.5l-.05,0c-.46.61-.9.91-1.32.89-.65,0-1.12-.83-1.13-.85l-.07-.09a1.27,1.27,0,0,0,.12-.5v0A1.2,1.2,0,0,0,5.66,8.5,1.18,1.18,0,0,0,4.44,9.68v0h0a1.21,1.21,0,0,0,1.2,1.2h0a1.24,1.24,0,0,0,.53-.12,4.24,4.24,0,0,0,.4.5,2.08,2.08,0,0,0,1.3.65H8A2.45,2.45,0,0,0,9.85,10.79Zm-4.2-.66a.43.43,0,0,1,0-.86h0a.45.45,0,0,1,.44.43A.43.43,0,0,1,5.65,10.13Zm4.75-.86a.44.44,0,0,1,.44.44.43.43,0,0,1-.45.42A.42.42,0,0,1,10,9.7.44.44,0,0,1,10.4,9.27Z"/><path class="cls-2" d="M4.68,4.88,4.8,8a.38.38,0,0,0,.38.38h0A.39.39,0,0,0,5.57,8L5.45,4.68V4.5L5.3,4.39a2.82,2.82,0,0,1-.52-.52L8,1.44l3.24,2.44a3.17,3.17,0,0,1-.52.53l-.14.11L10.45,8a.4.4,0,0,0,.38.4h0A.4.4,0,0,0,11.23,8l.11-3.08a2,2,0,0,0,.73-1.05.56.56,0,0,0-.15-.42l0,0L8.28.68A.34.34,0,0,0,8.07.6a.37.37,0,0,0-.33.07L4.12,3.4l0,0A.55.55,0,0,0,4,3.84,1.94,1.94,0,0,0,4.68,4.88Z"/></g></g></svg>