<svg xmlns="http://www.w3.org/2000/svg" viewBox="0 0 2330.67 520.03"><defs><style>.cls-1{fill:#1d1d1b;}</style></defs><title>loligo_text_logo_2</title><g id="Calque_2" data-name="Calque 2"><g id="Calque_1-2" data-name="Calque 1"><path class="cls-1" d="M670.59,286.69V403.4H395.24V6.8H522.72V286.69Z"/><path class="cls-1" d="M1071.17,205.1c0,117.28-90.09,205.67-209.07,205.67S653,322.38,653,205.1C653,88.39,743.12,0,862.1,0S1071.17,88.39,1071.17,205.1Zm-127.48,0c0-47.59-34.56-81.59-81.59-81.59s-81.58,34-81.58,81.59c0,48.16,34.56,81.59,81.58,81.59S943.69,253.26,943.69,205.1Z"/><path class="cls-1" d="M1357.29,286.69V403.4H1081.93V6.8h127.48V286.69Z"/><path class="cls-1" d="M1492.7,6.8V403.4H1365.22V6.8Z"/><path class="cls-1" d="M1907.43,173.94V403.4h-56.65l-11.33-41.93c-29.47,30.6-72,49.3-126.92,49.3-119,0-209.06-88.39-209.06-205.67C1503.47,88.39,1593.55,0,1712.53,0c72,0,133.71,32.29,171.11,84.42l-106,69.69c-14.73-19.27-38-30.6-65.16-30.6-47.59,0-82.15,34-82.15,81.59,0,51,34.56,86.69,82.15,86.69,34,0,58.93-11.34,72-35.7h-82.16V173.94Z"/><path class="cls-1" d="M2330.67,205.1c0,117.28-90.09,205.67-209.07,205.67s-209.06-88.39-209.06-205.67C1912.54,88.39,2002.62,0,2121.6,0S2330.67,88.39,2330.67,205.1Zm-127.48,0c0-47.59-34.56-81.59-81.59-81.59s-81.58,34-81.58,81.59c0,48.16,34.56,81.59,81.58,81.59S2203.19,253.26,2203.19,205.1Z"/><path class="cls-1" d="M124.88,359.84a10,10,0,0,0,10-10l0-30a10,10,0,0,0-10-10h0a10,10,0,0,0-10,10l0,20-85-.14h0a10,10,0,0,0,0,20l95,.15Z"/><path class="cls-1" d="M169.75,309.35h0a10,10,0,0,0-10,10l0,62.18-85-.33h0a10,10,0,0,0,0,20l95,.37h0a10,10,0,0,0,10-10l0-72.22A10,10,0,0,0,169.75,309.35Z"/><path class="cls-1" d="M353.9,339.69h0l-85,.14,0-20a10,10,0,0,0-10-10h0a10,10,0,0,0-10,10l0,30a10,10,0,0,0,10,10h0l95-.15a10,10,0,0,0,0-20Z"/><path class="cls-1" d="M309,381.21h0l-85,.33,0-62.18a10,10,0,0,0-10-10h0a10,10,0,0,0-10,10l0,72.22a10,10,0,0,0,10,10h0l95-.37a10,10,0,0,0,0-20Z"/><path class="cls-1" d="M239.16,271.74a31.43,31.43,0,1,0-14.07-14.29,9.44,9.44,0,0,0-1.16,1.28c-11.89,15.83-23.41,23.54-34.25,22.88-16.84-1-29-21.51-29.19-21.86a9.88,9.88,0,0,0-1.82-2.31,31.45,31.45,0,1,0-14.23,14.37,83.14,83.14,0,0,0,10.37,12.85C165,295,176.63,300.84,188.37,301.57c.88.05,1.75.08,2.63.08C207.78,301.65,224,291.6,239.16,271.74ZM130.44,255.12a11.39,11.39,0,1,1,11.38-11.39A11.4,11.4,0,0,1,130.44,255.12Zm122.87-22.77a11.39,11.39,0,1,1-11.39,11.38A11.4,11.4,0,0,1,253.31,232.35Z"/><path class="cls-1" d="M105.44,119l2.88,80a10,10,0,0,0,10,9.64h.37a10,10,0,0,0,9.63-10.35l-3.21-89-3.6-2.87a84.05,84.05,0,0,1-13.59-13.55l83.45-63,83.85,63.34c-2.63,3.63-8.16,9.2-13.6,13.55l-3.6,2.87-3.21,89a10,10,0,0,0,9.64,10.36h.36a10,10,0,0,0,10-9.64l2.88-80c8-6.85,18.23-17.4,18.91-26.92a14.19,14.19,0,0,0-3.76-10.88l-.59-.62L198.56,10.09a10,10,0,0,0-5.52-2,10,10,0,0,0-8.49,1.71L90.88,80.55l-.58.62a14.17,14.17,0,0,0-3.77,10.88C87.21,101.57,97.46,112.12,105.44,119Z"/><path class="cls-1" d="M45.35,169A10,10,0,0,0,54,164.06a24.8,24.8,0,0,1,3,3.79c6.56,10.33,5.77,25.82-2.35,46-9.3,23.17-8.92,42.7,1.11,58.06,18,27.57,60.49,29.21,62.28,29.26h.32a10,10,0,0,0,.31-20c-.34,0-34-1.57-46.17-20.22-6.25-9.56-6-22.9.71-39.65,10.66-26.54,10.88-48.14.68-64.22a46.56,46.56,0,0,0-11.36-12.21l.89-2A10,10,0,0,0,55.6,129L11.4,122.7A10,10,0,0,0,4,140.62L39.37,167A10,10,0,0,0,45.35,169Z"/><path class="cls-1" d="M383.08,128.39a10,10,0,0,0-10.65-6.1l-44.2,6.26a10,10,0,0,0-7.75,13.93l.81,1.84a46.65,46.65,0,0,0-12.18,12.81c-10.2,16.08-10,37.68.68,64.22,6.71,16.72,7,30.05.74,39.61-12.24,18.81-45.7,20.25-46.21,20.26a10,10,0,0,0,.32,20H265c1.79,0,44.26-1.69,62.28-29.26,10-15.36,10.41-34.89,1.11-58.06-8.09-20.15-8.91-35.61-2.42-45.94a25.67,25.67,0,0,1,3.76-4.64,10,10,0,0,0,14.77,3.27l35.35-26.37A10,10,0,0,0,383.08,128.39Z"/><path class="cls-1" d="M681.83,460a68.77,68.77,0,0,1,11.3-.88c5.82,0,10.09,1.36,12.79,3.79a12.25,12.25,0,0,1,4,9.54c0,4.13-1.22,7.38-3.52,9.75-3.11,3.31-8.19,5-13.94,5a20.17,20.17,0,0,1-4.74-.41v18.27h-5.89Zm5.89,22a20.19,20.19,0,0,0,4.87.47c7.11,0,11.44-3.45,11.44-9.75,0-6-4.26-8.93-10.76-8.93a24.86,24.86,0,0,0-5.55.47Z"/><path class="cls-1" d="M745.58,488.42c0,12.12-8.39,17.4-16.31,17.4-8.86,0-15.7-6.5-15.7-16.85,0-11,7.17-17.4,16.24-17.4C739.22,471.57,745.58,478.41,745.58,488.42Zm-26,.34c0,7.18,4.13,12.59,9.95,12.59s10-5.35,10-12.72c0-5.55-2.78-12.59-9.81-12.59S719.59,482.54,719.59,488.76Z"/><path class="cls-1" d="M755,472.32,759.32,489c.94,3.65,1.82,7,2.43,10.42h.2c.75-3.32,1.83-6.84,2.92-10.36l5.34-16.71h5l5.07,16.37c1.22,3.93,2.17,7.38,2.91,10.7h.21a98.75,98.75,0,0,1,2.5-10.63l4.67-16.44h5.89l-10.56,32.75H780.5l-5-15.63a108.93,108.93,0,0,1-2.91-10.76h-.14a97,97,0,0,1-3,10.83l-5.28,15.56h-5.42l-9.88-32.75Z"/><path class="cls-1" d="M805.06,489.78c.14,8.05,5.28,11.37,11.23,11.37a21.45,21.45,0,0,0,9.07-1.7l1,4.27a26.52,26.52,0,0,1-10.9,2c-10.08,0-16.1-6.63-16.1-16.51s5.82-17.67,15.36-17.67c10.69,0,13.53,9.41,13.53,15.43a22.22,22.22,0,0,1-.2,2.78Zm17.46-4.27c.07-3.79-1.56-9.67-8.26-9.67-6,0-8.66,5.55-9.13,9.67Z"/><path class="cls-1" d="M835.65,482.54c0-3.86-.07-7.18-.27-10.22h5.21l.2,6.43h.27c1.49-4.4,5.08-7.18,9.07-7.18a6.25,6.25,0,0,1,1.69.21v5.61a9.29,9.29,0,0,0-2-.2c-4.2,0-7.17,3.18-8,7.65a17.34,17.34,0,0,0-.27,2.77v17.46h-5.88Z"/><path class="cls-1" d="M860.41,489.78c.14,8.05,5.28,11.37,11.24,11.37a21.52,21.52,0,0,0,9.07-1.7l1,4.27a26.49,26.49,0,0,1-10.9,2c-10.08,0-16.1-6.63-16.1-16.51s5.82-17.67,15.36-17.67c10.69,0,13.53,9.41,13.53,15.43a22.22,22.22,0,0,1-.2,2.78Zm17.46-4.27c.07-3.79-1.55-9.67-8.25-9.67-6,0-8.67,5.55-9.14,9.67Z"/><path class="cls-1" d="M919.29,457v39.59c0,2.91.06,6.23.27,8.46h-5.35l-.27-5.68h-.14a12.11,12.11,0,0,1-11.16,6.43c-7.92,0-14-6.7-14-16.65-.07-10.9,6.7-17.6,14.69-17.6,5,0,8.39,2.37,9.88,5h.13V457Zm-6,28.63a10.58,10.58,0,0,0-.27-2.5,8.76,8.76,0,0,0-8.59-6.91c-6.16,0-9.82,5.42-9.82,12.66,0,6.63,3.25,12.11,9.68,12.11a9,9,0,0,0,8.73-7.1,10.59,10.59,0,0,0,.27-2.58Z"/><path class="cls-1" d="M943.24,505.07c.13-2.23.27-5.55.27-8.46V457h5.89V477.6h.13c2.1-3.66,5.89-6,11.17-6,8.12,0,13.87,6.77,13.8,16.72,0,11.71-7.37,17.53-14.68,17.53-4.74,0-8.53-1.83-11-6.16h-.21l-.27,5.41Zm6.16-13.13a10.83,10.83,0,0,0,.27,2.17,9.18,9.18,0,0,0,8.93,7c6.23,0,9.95-5.08,9.95-12.59,0-6.56-3.39-12.18-9.75-12.18a9.47,9.47,0,0,0-9.06,7.31,11.47,11.47,0,0,0-.34,2.44Z"/><path class="cls-1" d="M983.7,472.32l7.18,19.35c.74,2.17,1.55,4.74,2.1,6.7h.13c.61-2,1.29-4.46,2.1-6.83l6.5-19.22H1008l-8.93,23.34c-4.27,11.24-7.18,17-11.24,20.51a16.16,16.16,0,0,1-7.31,3.86L979,515a15.75,15.75,0,0,0,5.21-2.91,18.13,18.13,0,0,0,5-6.63,4.4,4.4,0,0,0,.48-1.42,5.23,5.23,0,0,0-.41-1.56l-12.11-30.18Z"/><path class="cls-1" d="M1028,460a68.57,68.57,0,0,1,11.3-.88c5.82,0,10.08,1.36,12.79,3.79a12.24,12.24,0,0,1,4,9.54c0,4.13-1.21,7.38-3.51,9.75-3.12,3.31-8.19,5-14,5a20.13,20.13,0,0,1-4.73-.41v18.27H1028Zm5.89,22a20.14,20.14,0,0,0,4.87.47c7.11,0,11.44-3.45,11.44-9.75,0-6-4.27-8.93-10.76-8.93a24.79,24.79,0,0,0-5.55.47Z"/><path class="cls-1" d="M1091.71,488.42c0,12.12-8.4,17.4-16.31,17.4-8.87,0-15.7-6.5-15.7-16.85,0-11,7.17-17.4,16.24-17.4C1085.35,471.57,1091.71,478.41,1091.71,488.42Zm-26,.34c0,7.18,4.13,12.59,10,12.59s9.95-5.35,9.95-12.72c0-5.55-2.78-12.59-9.82-12.59S1065.72,482.54,1065.72,488.76Z"/><path class="cls-1" d="M1099.22,457h6v48.05h-6Z"/><path class="cls-1" d="M1121.82,463.11a3.69,3.69,0,0,1-7.38,0,3.63,3.63,0,0,1,3.72-3.72A3.54,3.54,0,0,1,1121.82,463.11Zm-6.64,42V472.32h6v32.75Z"/><path class="cls-1" d="M1131,483c0-4.2-.14-7.58-.27-10.69h5.35l.27,5.61h.13a12.88,12.88,0,0,1,11.64-6.36c7.92,0,13.87,6.7,13.87,16.65,0,11.78-7.17,17.6-14.88,17.6-4.34,0-8.13-1.9-10.09-5.15h-.13v17.8H1131Zm5.89,8.73a13.1,13.1,0,0,0,.27,2.44,9.19,9.19,0,0,0,8.93,7c6.29,0,10-5.15,10-12.66,0-6.56-3.45-12.18-9.75-12.18a9.5,9.5,0,0,0-9,7.38,9.72,9.72,0,0,0-.4,2.43Z"/><path class="cls-1" d="M1172.84,489.78c.13,8.05,5.28,11.37,11.23,11.37a21.45,21.45,0,0,0,9.07-1.7l1,4.27a26.52,26.52,0,0,1-10.9,2c-10.08,0-16.11-6.63-16.11-16.51s5.82-17.67,15.37-17.67c10.69,0,13.53,9.41,13.53,15.43a24.35,24.35,0,0,1-.2,2.78Zm17.46-4.27c.07-3.79-1.56-9.67-8.26-9.67-6,0-8.66,5.55-9.13,9.67Z"/><path class="cls-1" d="M1210.6,462.91v9.41h8.52v4.53h-8.52v17.66c0,4.06,1.15,6.37,4.46,6.37a13.44,13.44,0,0,0,3.46-.41l.27,4.47a14.68,14.68,0,0,1-5.28.81,8.23,8.23,0,0,1-6.43-2.51c-1.69-1.76-2.3-4.67-2.3-8.52V476.85h-5.08v-4.53h5.08v-7.85Z"/><path class="cls-1" d="M1233,462.91v9.41h8.52v4.53H1233v17.66c0,4.06,1.15,6.37,4.46,6.37a13.28,13.28,0,0,0,3.45-.41l.27,4.47a14.62,14.62,0,0,1-5.27.81,8.23,8.23,0,0,1-6.43-2.51c-1.69-1.76-2.3-4.67-2.3-8.52V476.85h-5.08v-4.53h5.08v-7.85Z"/><path class="cls-1" d="M1277.45,488.42c0,12.12-8.39,17.4-16.3,17.4-8.87,0-15.7-6.5-15.7-16.85,0-11,7.17-17.4,16.24-17.4C1271.09,471.57,1277.45,478.41,1277.45,488.42Zm-26,.34c0,7.18,4.13,12.59,10,12.59s9.94-5.35,9.94-12.72c0-5.55-2.77-12.59-9.81-12.59S1251.47,482.54,1251.47,488.76Z"/><path class="cls-1" d="M1305.4,464.47h-13.87v-5h33.77v5h-13.94v40.6h-6Z"/><path class="cls-1" d="M1328.68,489.78c.13,8.05,5.28,11.37,11.23,11.37a21.45,21.45,0,0,0,9.07-1.7l1,4.27a26.52,26.52,0,0,1-10.9,2c-10.08,0-16.11-6.63-16.11-16.51s5.82-17.67,15.37-17.67c10.69,0,13.53,9.41,13.53,15.43a22.22,22.22,0,0,1-.2,2.78Zm17.46-4.27c.07-3.79-1.56-9.67-8.26-9.67-6,0-8.66,5.55-9.13,9.67Z"/><path class="cls-1" d="M1382.61,503.85a21.77,21.77,0,0,1-9.4,1.9c-9.88,0-16.31-6.7-16.31-16.72s6.9-17.39,17.59-17.39a20,20,0,0,1,8.26,1.69l-1.36,4.6a13.82,13.82,0,0,0-6.9-1.55c-7.51,0-11.57,5.55-11.57,12.38,0,7.58,4.87,12.25,11.37,12.25a17,17,0,0,0,7.31-1.62Z"/><path class="cls-1" d="M1389.58,457h6v20.44h.13a11.07,11.07,0,0,1,4.26-4.19,12.23,12.23,0,0,1,6.1-1.7c4.39,0,11.43,2.71,11.43,14v19.49h-6V486.26c0-5.28-2-9.75-7.58-9.75a8.57,8.57,0,0,0-8,6,7.17,7.17,0,0,0-.4,2.84v19.76h-6Z"/><path class="cls-1" d="M1427.14,481.18c0-3.38-.07-6.16-.27-8.86h5.27l.34,5.41h.14a12,12,0,0,1,10.83-6.16c4.53,0,11.57,2.71,11.57,13.94v19.56h-6V486.19c0-5.28-2-9.68-7.58-9.68a8.46,8.46,0,0,0-8,6.09,8.61,8.61,0,0,0-.41,2.78v19.69h-5.95Z"/><path class="cls-1" d="M1494.33,488.42c0,12.12-8.39,17.4-16.31,17.4-8.86,0-15.69-6.5-15.69-16.85,0-11,7.17-17.4,16.24-17.4C1488,471.57,1494.33,478.41,1494.33,488.42Zm-26,.34c0,7.18,4.13,12.59,10,12.59s9.94-5.35,9.94-12.72c0-5.55-2.77-12.59-9.81-12.59S1468.35,482.54,1468.35,488.76Z"/><path class="cls-1" d="M1501.84,457h6v48.05h-6Z"/><path class="cls-1" d="M1547.45,488.42c0,12.12-8.39,17.4-16.31,17.4-8.86,0-15.7-6.5-15.7-16.85,0-11,7.18-17.4,16.25-17.4C1541.09,471.57,1547.45,478.41,1547.45,488.42Zm-26,.34c0,7.18,4.13,12.59,10,12.59s9.94-5.35,9.94-12.72c0-5.55-2.77-12.59-9.81-12.59S1521.47,482.54,1521.47,488.76Z"/><path class="cls-1" d="M1583.18,472.32c-.13,2.37-.27,5-.27,9v19c0,7.52-1.49,12.12-4.67,15s-7.78,3.92-11.91,3.92c-3.92,0-8.25-.94-10.89-2.7l1.49-4.54a18.39,18.39,0,0,0,9.61,2.58c6.09,0,10.55-3.19,10.55-11.44v-3.66H1577a11.7,11.7,0,0,1-10.42,5.49c-8.13,0-14-6.91-14-16,0-11.1,7.25-17.4,14.76-17.4,5.68,0,8.8,3,10.22,5.69h.13l.27-4.94ZM1577,485.24a8.48,8.48,0,0,0-.33-2.7,8.59,8.59,0,0,0-8.33-6.3c-5.68,0-9.74,4.81-9.74,12.39,0,6.43,3.25,11.77,9.67,11.77a8.7,8.7,0,0,0,8.26-6.09,10.26,10.26,0,0,0,.47-3.18Z"/><path class="cls-1" d="M1599,463.11a3.69,3.69,0,0,1-7.38,0,3.63,3.63,0,0,1,3.72-3.72A3.54,3.54,0,0,1,1599,463.11Zm-6.64,42V472.32h6v32.75Z"/><path class="cls-1" d="M1611.53,489.78c.14,8.05,5.28,11.37,11.24,11.37a21.52,21.52,0,0,0,9.07-1.7l1,4.27a26.47,26.47,0,0,1-10.89,2c-10.09,0-16.11-6.63-16.11-16.51s5.82-17.67,15.36-17.67c10.69,0,13.54,9.41,13.54,15.43a21.82,21.82,0,0,1-.21,2.78Zm17.46-4.27c.07-3.79-1.55-9.67-8.25-9.67-6,0-8.66,5.55-9.14,9.67Z"/><path class="cls-1" d="M1641.31,499a15.61,15.61,0,0,0,7.85,2.37c4.33,0,6.36-2.17,6.36-4.87,0-2.85-1.69-4.4-6.09-6-5.89-2.09-8.66-5.34-8.66-9.27,0-5.28,4.26-9.61,11.3-9.61a16.39,16.39,0,0,1,8,2l-1.49,4.33a12.74,12.74,0,0,0-6.7-1.89c-3.52,0-5.48,2-5.48,4.47,0,2.7,2,3.92,6.23,5.55,5.68,2.16,8.59,5,8.59,9.88,0,5.75-4.47,9.81-12.25,9.81a18.58,18.58,0,0,1-9.2-2.24Z"/></g></g></svg>