<svg xmlns="http://www.w3.org/2000/svg" viewBox="0 0 877.17 873.46"><defs><style>.cls-1{fill:#fff;}.cls-2{fill:#fec900;}.cls-3{fill:#fefefe;}.cls-4{fill:none;stroke:#1d1d1b;stroke-linecap:round;stroke-linejoin:round;stroke-width:13px;}</style></defs><title>polipetto_stars_1</title><g id="Calque_2" data-name="Calque 2"><g id="Calque_1-2" data-name="Calque 1"><path class="cls-1" d="M717.66,331.4l2.31,4.43a16.57,16.57,0,0,0,11.55,8.58c.25,0,.49.09.74.12a16.56,16.56,0,0,0,13.17-3.81l68.72-58.94A16.57,16.57,0,0,0,799.93,253l-89.64,19a16.56,16.56,0,0,0-11.24,23.88l2.94,5.61a93.52,93.52,0,0,0-26.6,30.3c-18,33.16-14.5,76.15,10.42,127.79,16.68,34.55,19,63.05,6.93,84.69-19.73,35.31-72.47,46.45-89.49,49.18l-.14-.14s-41.38,7.17-83.41,7.4l-.2-.34A228.83,228.83,0,0,0,542.74,570c.15-.24.27-.48.41-.71a59.9,59.9,0,0,0,17.72,5.53,61.4,61.4,0,0,0,13,.48,60.47,60.47,0,0,0,.68-120.6l-2.1-34.81c0-.41,0-.82,0-1.24l-8.34-163.47C577.54,240.9,598.94,215,598,196a24.35,24.35,0,0,0-8.81-17.87c-9.92-8.14-47.45-28.93-76.53-43.52-18.7-9.38-35.34-17-48.13-22-17.68-6.92-28.17-9.17-36.14-7.54-9.81.83-29.46,8-78.5,38.45-32.62,20.24-66.08,43.36-74.59,51.53A25.17,25.17,0,0,0,267.64,214c.39,19.08,22.12,42.53,35.95,55.57l-2.35,153.08-.4,1.51.31,49.93a60.45,60.45,0,1,0,50.57,108.24,150.09,150.09,0,0,0,11.45,14.18c-.7,1-1.37,2.08-2,3.14-23.88,18.65-70.25,14.09-70.25,14.09l-.14.08c-46.41-3.79-77.13-15-91.4-33.39-18.3-23.55-11.14-60-3.57-98.66,8.16-41.59,16.59-84.58-7.27-117.29A81,81,0,0,0,165,343.18l3-8.39a16.55,16.55,0,0,0-14.37-22.14L62.23,306a16.56,16.56,0,0,0-10.18,30.44l76.08,49.08a16.56,16.56,0,0,0,24.55-8.3l.64-1.76a44.32,44.32,0,0,1,8.43,8.58c15.33,21,8.62,55.2,1.53,91.39-8.27,42.14-17.63,89.91,9.9,125.36,17.66,22.73,48.13,37.11,92.7,43.6q7.78,1.14,16.15,2c1,.18,2,.35,3,.51,20.3,3,43.69-.74,62.65-5.43A91.63,91.63,0,0,0,378,715.93a30.65,30.65,0,0,1-3.81,12.36c-24.15,45.4-10.51,70.36,4.17,90.19A16.56,16.56,0,0,0,405,798.77c-9.6-13-17.9-24.18-1.55-54.92a69.39,69.39,0,0,0,4.32-9.94,93.67,93.67,0,0,0,52.3,3.85c.36,6.83-1.36,13.81-5.21,21-29,54.43-13.47,83.17,4.87,108A16.56,16.56,0,1,0,486.37,847c-12.24-16.53-23.8-32.15-2.25-72.67,8.71-16.36,11.13-33.4,7.41-49.73A91.88,91.88,0,0,0,523,689.8a46.58,46.58,0,0,1,8.35,9.76c5.77,9.21,6,18.2.6,28.28-24.15,45.4-10.51,70.36,4.17,90.19a16.56,16.56,0,1,0,26.62-19.72c-9.6-13-17.9-24.17-1.55-54.91,11.15-20.95,10.22-43.23-2.6-62.74a81,81,0,0,0-21.94-22.14,16.78,16.78,0,0,0-4-1.84,90.77,90.77,0,0,0-2.29-30.48c20.94,1.23,52.18,2.57,70.35,1,.16,0,.32,0,.49,0l2-.23c1.56-.17,3-.37,4.31-.6,20.78-3.17,86.7-16.88,114.12-65.79,17.74-31.65,15.74-70.46-5.94-115.37-20-41.38-23.76-74.15-11.25-97.39A58.42,58.42,0,0,1,717.66,331.4Z"/><polygon class="cls-2" points="23.71 224.16 47.41 217.21 40.47 240.92 47.41 264.63 23.71 257.69 0 264.63 6.94 240.92 0 217.21 23.71 224.16"/><polygon class="cls-2" points="772.51 130 798.14 122.49 790.64 148.12 798.14 173.75 772.51 166.24 746.88 173.75 754.39 148.12 746.88 122.49 772.51 130"/><polygon class="cls-2" points="51.47 461.83 76.39 443.96 58.52 468.88 76.39 493.8 51.47 475.93 26.55 493.8 44.42 468.88 26.55 443.96 51.47 461.83"/><polygon class="cls-2" points="392.95 17.87 417.87 0 400 24.92 417.87 49.84 392.95 31.97 368.03 49.84 385.9 24.92 368.03 0 392.95 17.87"/><polygon class="cls-2" points="666.44 452.51 691.36 434.63 673.49 459.56 691.36 484.48 666.44 466.6 641.52 484.48 659.39 459.56 641.52 434.63 666.44 452.51"/><polygon class="cls-2" points="285.8 630.31 310.73 612.44 292.85 637.36 310.73 662.28 285.8 644.41 260.88 662.28 278.75 637.36 260.88 612.44 285.8 630.31"/><polygon class="cls-2" points="853.46 523.13 877.17 516.19 870.23 539.9 877.17 563.6 853.46 556.66 829.75 563.6 836.7 539.9 829.75 516.19 853.46 523.13"/><path class="cls-3" d="M403.25,128.63c-.33-.34-.66-.67-1-1C403.11,127.43,403.45,127.77,403.25,128.63Z"/><path class="cls-4" d="M289.77,537.85c14.43-17.64,41.74-19.12,61.06-3.32"/><path class="cls-4" d="M542.33,518.33c14.43-17.64,41.75-19.12,61.06-3.31"/><polygon class="cls-2" points="281.4 226.27 305.11 219.33 298.16 243.04 305.11 266.75 281.4 259.8 257.69 266.75 264.63 243.04 257.69 219.33 281.4 226.27"/><polygon class="cls-2" points="570.2 119.73 577.36 103.92 575.65 121.19 591.47 128.35 574.19 126.65 567.03 142.46 568.74 125.19 552.93 118.03 570.2 119.73"/><polygon class="cls-2" points="851.33 323.41 858.49 307.6 856.78 324.87 872.59 332.03 855.32 330.32 848.16 346.14 849.87 328.86 834.05 321.7 851.33 323.41"/><polygon class="cls-2" points="676.35 696.32 683.5 680.5 681.8 697.77 697.61 704.93 680.34 703.23 673.18 719.04 674.88 701.77 659.07 694.61 676.35 696.32"/></g></g></svg>