<svg xmlns="http://www.w3.org/2000/svg" viewBox="0 0 2330.66 631.17"><defs><style>.cls-1{font-size:566.58px;font-family:MADETOMMY-Black, MADE TOMMY;font-weight:800;letter-spacing:-0.08em;}.cls-2{letter-spacing:-0.06em;}.cls-3,.cls-4{fill:none;stroke:#000;stroke-linecap:round;stroke-width:20px;}.cls-3{stroke-linejoin:round;}.cls-4{stroke-miterlimit:10;}.cls-5{fill:#1d1d1b;}</style></defs><title>loligo_text_logo</title><g id="Calque_2" data-name="Calque 2"><g id="Calque_1-2" data-name="Calque 1"><text class="cls-1" transform="translate(366.91 481.59)">L<tspan class="cls-2" x="271.96" y="0">OLIGO</tspan></text><polyline class="cls-3" points="124.84 398.01 124.88 428.03 29.84 427.87"/><polyline class="cls-3" points="169.75 397.54 169.79 469.77 74.75 469.39"/><polyline class="cls-3" points="258.9 398.01 258.86 428.03 353.9 427.87"/><polyline class="cls-3" points="214 397.54 213.96 469.77 309 469.39"/><circle class="cls-4" cx="130.44" cy="321.92" r="21.39"/><circle class="cls-4" cx="253.31" cy="321.92" r="21.39"/><path class="cls-3" d="M118.29,369.41s-82.93-2.6-54.43-73.6-34.21-74.64-34.21-74.64"/><path class="cls-3" d="M264.64,369.41s82.93-2.6,54.43-73.6,34.2-74.64,34.2-74.64"/><path class="cls-4" d="M151.82,342.92s34.63,60.56,80.1,0"/><path class="cls-4" d="M118.32,276.76l-3-84.45s-24.14-19.23-17.69-26.1l93-70.25"/><path class="cls-4" d="M264.8,277.06l3-84.45S292,173.38,285.53,166.5l-93-70.25"/><polygon class="cls-3" points="10 210.79 45.35 237.16 54.2 217.05 10 210.79"/><polygon class="cls-3" points="373.83 210.38 338.48 236.75 329.63 216.64 373.83 210.38"/><path class="cls-5" d="M681.83,538.19a67.58,67.58,0,0,1,11.3-.88c5.82,0,10.09,1.35,12.79,3.79a12.24,12.24,0,0,1,4,9.54c0,4.13-1.22,7.38-3.52,9.74-3.12,3.32-8.19,5-13.94,5a20.75,20.75,0,0,1-4.74-.4v18.27h-5.89Zm5.89,22a19.65,19.65,0,0,0,4.87.48c7.11,0,11.44-3.46,11.44-9.75,0-6-4.26-8.93-10.76-8.93a24.86,24.86,0,0,0-5.55.47Z"/><path class="cls-5" d="M745.58,566.61c0,12.11-8.39,17.39-16.31,17.39-8.87,0-15.7-6.49-15.7-16.85,0-11,7.17-17.39,16.24-17.39C739.22,549.76,745.58,556.59,745.58,566.61Zm-26,.34c0,7.17,4.13,12.59,9.95,12.59s10-5.35,10-12.73c0-5.55-2.78-12.58-9.81-12.58S719.59,560.72,719.59,567Z"/><path class="cls-5" d="M755,550.5l4.33,16.65c1,3.66,1.83,7,2.44,10.42h.2c.75-3.31,1.83-6.83,2.91-10.35l5.35-16.72h5l5.07,16.38c1.22,3.93,2.17,7.38,2.91,10.69h.21a99.16,99.16,0,0,1,2.5-10.62l4.67-16.45h5.89l-10.56,32.76H780.5l-5-15.63a109.69,109.69,0,0,1-2.91-10.76h-.14a96.79,96.79,0,0,1-3,10.82l-5.28,15.57h-5.42l-9.88-32.76Z"/><path class="cls-5" d="M805.06,568c.13,8.06,5.28,11.37,11.23,11.37a21.47,21.47,0,0,0,9.07-1.69l1,4.26a26.52,26.52,0,0,1-10.9,2c-10.08,0-16.11-6.63-16.11-16.51s5.82-17.66,15.37-17.66c10.69,0,13.53,9.41,13.53,15.43a22,22,0,0,1-.2,2.77Zm17.46-4.26c.07-3.79-1.56-9.68-8.26-9.68-6,0-8.66,5.55-9.13,9.68Z"/><path class="cls-5" d="M835.64,560.72c0-3.85-.06-7.17-.27-10.22h5.22l.2,6.43h.27c1.49-4.4,5.07-7.17,9.07-7.17a6.7,6.7,0,0,1,1.69.2v5.62a8.72,8.72,0,0,0-2-.2c-4.2,0-7.17,3.18-8,7.64a17.47,17.47,0,0,0-.27,2.78v17.46h-5.89Z"/><path class="cls-5" d="M860.41,568c.14,8.06,5.28,11.37,11.24,11.37a21.46,21.46,0,0,0,9.06-1.69l1,4.26a26.52,26.52,0,0,1-10.9,2c-10.08,0-16.1-6.63-16.1-16.51s5.82-17.66,15.36-17.66c10.69,0,13.53,9.41,13.53,15.43a22,22,0,0,1-.2,2.77Zm17.46-4.26c.07-3.79-1.55-9.68-8.25-9.68-6,0-8.67,5.55-9.14,9.68Z"/><path class="cls-5" d="M919.29,535.21V574.8c0,2.91.06,6.22.27,8.46h-5.35l-.27-5.69h-.14A12.1,12.1,0,0,1,902.64,584c-7.92,0-14-6.7-14-16.65-.07-10.89,6.7-17.59,14.68-17.59,5,0,8.4,2.37,9.88,5h.14V535.21Zm-6,28.63a10.72,10.72,0,0,0-.27-2.51,8.76,8.76,0,0,0-8.6-6.9c-6.15,0-9.81,5.41-9.81,12.65,0,6.64,3.25,12.12,9.68,12.12a9,9,0,0,0,8.73-7.11,10.45,10.45,0,0,0,.27-2.57Z"/><path class="cls-5" d="M943.24,583.26c.13-2.24.27-5.55.27-8.46V535.21h5.89v20.57h.13c2.1-3.65,5.89-6,11.17-6,8.12,0,13.87,6.77,13.8,16.72,0,11.7-7.37,17.52-14.68,17.52-4.74,0-8.53-1.83-11-6.16h-.2l-.27,5.42Zm6.16-13.13a10.73,10.73,0,0,0,.27,2.16,9.19,9.19,0,0,0,8.93,7c6.23,0,9.95-5.08,9.95-12.59,0-6.57-3.39-12.18-9.75-12.18a9.49,9.49,0,0,0-9.07,7.31,12,12,0,0,0-.33,2.43Z"/><path class="cls-5" d="M983.7,550.5l7.18,19.36c.74,2.16,1.55,4.74,2.1,6.7h.13c.61-2,1.29-4.47,2.1-6.84l6.49-19.22h6.3l-8.93,23.35c-4.27,11.23-7.18,17-11.24,20.51a16.11,16.11,0,0,1-7.31,3.85l-1.49-5a16.06,16.06,0,0,0,5.22-2.91,18.09,18.09,0,0,0,5-6.64,4.33,4.33,0,0,0,.48-1.42,5.19,5.19,0,0,0-.41-1.55L977.21,550.5Z"/><path class="cls-5" d="M1028,538.19a67.49,67.49,0,0,1,11.3-.88c5.82,0,10.08,1.35,12.79,3.79a12.26,12.26,0,0,1,4,9.54c0,4.13-1.22,7.38-3.52,9.74-3.11,3.32-8.18,5-13.94,5a20.66,20.66,0,0,1-4.73-.4v18.27H1028Zm5.89,22a19.59,19.59,0,0,0,4.87.48c7.1,0,11.44-3.46,11.44-9.75,0-6-4.27-8.93-10.76-8.93a24.73,24.73,0,0,0-5.55.47Z"/><path class="cls-5" d="M1091.7,566.61c0,12.11-8.39,17.39-16.3,17.39-8.87,0-15.7-6.49-15.7-16.85,0-11,7.17-17.39,16.24-17.39C1085.34,549.76,1091.7,556.59,1091.7,566.61Zm-26,.34c0,7.17,4.13,12.59,10,12.59s9.94-5.35,9.94-12.73c0-5.55-2.77-12.58-9.81-12.58S1065.72,560.72,1065.72,567Z"/><path class="cls-5" d="M1099.21,535.21h6v48h-6Z"/><path class="cls-5" d="M1121.82,541.3a3.69,3.69,0,0,1-7.38,0,3.63,3.63,0,0,1,3.72-3.72A3.54,3.54,0,0,1,1121.82,541.3Zm-6.64,42V550.5h6v32.76Z"/><path class="cls-5" d="M1131,561.2c0-4.2-.14-7.58-.27-10.7h5.34l.27,5.62h.14a12.88,12.88,0,0,1,11.64-6.36c7.92,0,13.87,6.7,13.87,16.65,0,11.77-7.17,17.59-14.89,17.59-4.33,0-8.12-1.89-10.08-5.14h-.13v17.8H1131Zm5.89,8.73a12.9,12.9,0,0,0,.27,2.43,9.18,9.18,0,0,0,8.93,7c6.29,0,10-5.14,10-12.65,0-6.57-3.45-12.18-9.75-12.18a9.5,9.5,0,0,0-9,7.37,9.88,9.88,0,0,0-.4,2.44Z"/><path class="cls-5" d="M1172.84,568c.13,8.06,5.28,11.37,11.23,11.37a21.51,21.51,0,0,0,9.07-1.69l1,4.26a26.43,26.43,0,0,1-10.89,2c-10.08,0-16.11-6.63-16.11-16.51s5.82-17.66,15.36-17.66c10.7,0,13.54,9.41,13.54,15.43a24.14,24.14,0,0,1-.2,2.77Zm17.46-4.26c.06-3.79-1.56-9.68-8.26-9.68-6,0-8.66,5.55-9.13,9.68Z"/><path class="cls-5" d="M1210.6,541.1v9.4h8.52V555h-8.52V572.7c0,4.06,1.15,6.36,4.46,6.36a13.38,13.38,0,0,0,3.45-.4l.27,4.46a14.4,14.4,0,0,1-5.27.81,8.26,8.26,0,0,1-6.43-2.5c-1.69-1.76-2.3-4.67-2.3-8.53V555h-5.08V550.5h5.08v-7.85Z"/><path class="cls-5" d="M1233,541.1v9.4h8.53V555H1233V572.7c0,4.06,1.15,6.36,4.47,6.36a13.38,13.38,0,0,0,3.45-.4l.27,4.46a14.42,14.42,0,0,1-5.28.81,8.25,8.25,0,0,1-6.42-2.5c-1.7-1.76-2.31-4.67-2.31-8.53V555h-5.07V550.5h5.07v-7.85Z"/><path class="cls-5" d="M1277.45,566.61c0,12.11-8.39,17.39-16.31,17.39-8.86,0-15.69-6.49-15.69-16.85,0-11,7.17-17.39,16.24-17.39C1271.09,549.76,1277.45,556.59,1277.45,566.61Zm-26,.34c0,7.17,4.13,12.59,10,12.59s9.94-5.35,9.94-12.73c0-5.55-2.77-12.58-9.81-12.58S1251.47,560.72,1251.47,567Z"/><path class="cls-5" d="M1305.4,542.65h-13.87v-5h33.77v5h-13.94v40.61h-6Z"/><path class="cls-5" d="M1328.68,568c.13,8.06,5.28,11.37,11.23,11.37a21.47,21.47,0,0,0,9.07-1.69l1,4.26a26.43,26.43,0,0,1-10.89,2c-10.08,0-16.11-6.63-16.11-16.51s5.82-17.66,15.37-17.66c10.69,0,13.53,9.41,13.53,15.43a24.14,24.14,0,0,1-.2,2.77Zm17.46-4.26c.07-3.79-1.56-9.68-8.26-9.68-6,0-8.66,5.55-9.13,9.68Z"/><path class="cls-5" d="M1382.61,582a22,22,0,0,1-9.41,1.89c-9.88,0-16.3-6.7-16.3-16.71s6.9-17.39,17.59-17.39a20,20,0,0,1,8.26,1.69l-1.36,4.6a13.81,13.81,0,0,0-6.9-1.56c-7.51,0-11.57,5.55-11.57,12.39,0,7.58,4.87,12.25,11.37,12.25a16.88,16.88,0,0,0,7.31-1.63Z"/><path class="cls-5" d="M1389.58,535.21h6v20.44h.13a11.17,11.17,0,0,1,4.26-4.2,12.32,12.32,0,0,1,6.09-1.69c4.4,0,11.44,2.71,11.44,14v19.49h-6V564.44c0-5.27-2-9.74-7.58-9.74a8.56,8.56,0,0,0-8,6,7.17,7.17,0,0,0-.4,2.84v19.76h-6Z"/><path class="cls-5" d="M1427.14,559.37c0-3.38-.07-6.16-.27-8.87h5.27l.34,5.42h.14a12,12,0,0,1,10.83-6.16c4.53,0,11.57,2.71,11.57,13.94v19.56h-6V564.38c0-5.28-2-9.68-7.58-9.68a8.45,8.45,0,0,0-8,6.09,8.55,8.55,0,0,0-.41,2.77v19.7h-5.95Z"/><path class="cls-5" d="M1494.33,566.61c0,12.11-8.39,17.39-16.31,17.39-8.86,0-15.7-6.49-15.7-16.85,0-11,7.18-17.39,16.25-17.39C1488,549.76,1494.33,556.59,1494.33,566.61Zm-26,.34c0,7.17,4.12,12.59,9.94,12.59s10-5.35,10-12.73c0-5.55-2.77-12.58-9.81-12.58S1468.35,560.72,1468.35,567Z"/><path class="cls-5" d="M1501.84,535.21h6v48h-6Z"/><path class="cls-5" d="M1547.45,566.61c0,12.11-8.39,17.39-16.31,17.39-8.86,0-15.7-6.49-15.7-16.85,0-11,7.18-17.39,16.24-17.39C1541.09,549.76,1547.45,556.59,1547.45,566.61Zm-26,.34c0,7.17,4.12,12.59,9.94,12.59s9.95-5.35,9.95-12.73c0-5.55-2.77-12.58-9.81-12.58S1521.47,560.72,1521.47,567Z"/><path class="cls-5" d="M1583.18,550.5c-.13,2.37-.27,5-.27,9v19c0,7.51-1.49,12.11-4.67,15s-7.78,3.92-11.91,3.92c-3.92,0-8.26-.95-10.89-2.71l1.48-4.53a18.52,18.52,0,0,0,9.61,2.57c6.09,0,10.56-3.18,10.56-11.43v-3.66H1577c-1.83,3.05-5.35,5.48-10.43,5.48-8.12,0-13.94-6.9-13.94-16,0-11.1,7.24-17.39,14.76-17.39,5.68,0,8.79,3,10.22,5.68h.13l.27-4.94ZM1577,563.43a8.5,8.5,0,0,0-.33-2.71,8.59,8.59,0,0,0-8.33-6.29c-5.68,0-9.74,4.8-9.74,12.38,0,6.43,3.25,11.78,9.67,11.78a8.71,8.71,0,0,0,8.26-6.09,10.35,10.35,0,0,0,.47-3.18Z"/><path class="cls-5" d="M1599,541.3a3.69,3.69,0,0,1-7.37,0,3.62,3.62,0,0,1,3.72-3.72A3.53,3.53,0,0,1,1599,541.3Zm-6.63,42V550.5h6v32.76Z"/><path class="cls-5" d="M1611.53,568c.14,8.06,5.28,11.37,11.24,11.37a21.46,21.46,0,0,0,9.06-1.69l1,4.26a26.49,26.49,0,0,1-10.9,2c-10.08,0-16.1-6.63-16.1-16.51s5.82-17.66,15.36-17.66c10.69,0,13.53,9.41,13.53,15.43a22,22,0,0,1-.2,2.77ZM1629,563.7c.07-3.79-1.55-9.68-8.25-9.68-6,0-8.67,5.55-9.14,9.68Z"/><path class="cls-5" d="M1641.31,577.17a15.61,15.61,0,0,0,7.85,2.37c4.33,0,6.36-2.17,6.36-4.88s-1.69-4.4-6.09-6c-5.89-2.1-8.67-5.35-8.67-9.27,0-5.28,4.27-9.61,11.31-9.61a16.39,16.39,0,0,1,8,2l-1.49,4.33a12.77,12.77,0,0,0-6.7-1.89c-3.52,0-5.48,2-5.48,4.46,0,2.71,2,3.93,6.23,5.55,5.68,2.17,8.59,5,8.59,9.88,0,5.75-4.47,9.81-12.25,9.81a18.69,18.69,0,0,1-9.2-2.23Z"/></g></g></svg>