<svg xmlns="http://www.w3.org/2000/svg" viewBox="0 0 344.25 393.81"><defs><style>.cls-1,.cls-2{fill:none;stroke:#4d348b;stroke-linecap:round;stroke-width:20px;}.cls-1{stroke-linejoin:round;}.cls-2{stroke-miterlimit:10;}</style></defs><title>Fichier 4</title><g id="Calque_2" data-name="Calque 2"><g id="Calque_1-2" data-name="Calque 1"><polyline class="cls-1" points="105.19 312.05 105.23 342.07 10.19 341.92"/><polyline class="cls-1" points="150.09 311.58 150.13 383.81 55.09 383.44"/><polyline class="cls-1" points="239.25 312.05 239.21 342.07 334.25 341.92"/><polyline class="cls-1" points="194.34 311.58 194.3 383.81 289.34 383.44"/><circle class="cls-2" cx="110.78" cy="235.96" r="21.39"/><circle class="cls-2" cx="233.65" cy="235.96" r="21.39"/><path class="cls-1" d="M98.63,283.45s-82.93-2.59-54.42-73.6S10,135.21,10,135.21"/><path class="cls-1" d="M245,283.45s82.93-2.59,54.42-73.6,34.21-74.64,34.21-74.64"/><path class="cls-2" d="M132.17,257s34.62,60.56,80.1,0"/><path class="cls-2" d="M98.66,190.81l-3-84.46S71.47,87.12,77.93,80.25l93-70.25"/><path class="cls-2" d="M245.14,191.11l3.05-84.46s24.14-19.23,17.68-26.1l-93-70.25"/></g></g></svg>